<svg width="225" height="166" viewBox="0 0 225 166" fill="none" xmlns="http://www.w3.org/2000/svg">
<path d="M122.5 121.5L106 145L116 105L106 79L221 140.5L138.5 164L122.5 121.5Z" stroke="white" stroke-width="3"/>
<path d="M115.5 104.5L220.5 140.5L123 120" stroke="white" stroke-width="2"/>
<path d="M105.5 145H130" stroke="white" stroke-width="2"/>
<path d="M94 144.5L85.5 145.5L78.5 146L72.5 146.5L65 146L57.5 145.5L51 144.5L43 143L36 140L30 137.5L24 133.5L18.5 129L13.5 123L9.5 117L6 110.5L3.5 103.5L2 96.5V89.5V82.5L3 75L5.5 68L8.5 61.5L13 55.5L18.5 50.5L23 47L30 43L37 40.5L44 38.5H52L59 39L65.5 41.5L67.7 42.5M67.7 42.5L71 44L77.5 48L83 54L85.5 60.5V67.5L81 73L74 74.5L67.5 70.5L63 64.5L62 57.5L64 50.5L67.7 42.5ZM67.7 42.5L71.5 37.5L76.5 32L81 27L86.5 22L92.5 18L98.5 14.5L105.5 11L112 8L118.5 6L125.5 4L133 3L140 2H147.5L155 2.5L162 3.5L169 5.5L175.5 7.5" stroke="white" stroke-width="3" stroke-linecap="round"/>
</svg>


